<?xml version="1.0" encoding="UTF-8" standalone="no"?>
<!-- Created with Inkscape (http://www.inkscape.org/) -->
<svg xmlns:dc="http://purl.org/dc/elements/1.1/" xmlns:cc="http://creativecommons.org/ns#" xmlns:rdf="http://www.w3.org/1999/02/22-rdf-syntax-ns#" xmlns:svg="http://www.w3.org/2000/svg" xmlns="http://www.w3.org/2000/svg" version="1.1" width="100%" height="100%" viewBox="0 0 100 100" id="Ebene_1" xml:space="preserve"><metadata id="metadata14"><rdf:RDF><cc:Work rdf:about=""><dc:format>image/svg+xml</dc:format><dc:type rdf:resource="http://purl.org/dc/dcmitype/StillImage"/><dc:title/></cc:Work></rdf:RDF></metadata><defs id="defs12"/>
<g transform="matrix(1.25,0,0,-1.25,-123.87225,344.69304)" id="_x32_4x24_6_">
	<g id="g3854_2_">
		<path d="m 139.099,274.954 c -21.607,0 -39.201,-17.588 -39.201,-39.198 0,-21.621 17.594,-39.201 39.201,-39.201 21.609,0 39.199,17.58 39.199,39.201 0,21.61 -17.59,39.198 -39.199,39.198" id="path718-7_8_" style="fill:#ffffff"/>
		<g transform="matrix(0.12901564,0,0,0.12901564,127.89851,223.00093)" id="g716_17_">
			<path d="m 86.814,-185.444 c -156.749,0 -284.29,127.53 -284.29,284.308 0,156.816 127.541,284.314 284.29,284.314 156.777,0 284.287,-127.498 284.287,-284.314 C 371.1,-57.915 243.591,-185.444 86.814,-185.444 m 0,588.134 c -167.479,0 -303.847,-136.324 -303.847,-303.827 0,-167.584 136.368,-303.85 303.847,-303.85 167.491,0 303.83,136.266 303.83,303.85 0,167.504 -136.339,303.827 -303.83,303.827" id="path718_19_" style="fill:#000c2a"/>
		</g>
		<g transform="matrix(0.12901564,0,0,0.12901564,127.36751,239.46579)" id="g720_19_">
			<path d="m 84.627,-117.647 c -25.503,0 -52.058,3.156 -74.7,6.355 v 29.608 c 18.785,-2.692 40.227,-6.368 62.614,-6.368 14.64,0 48.45,0 48.45,21.395 0,38.566 -108.071,3.156 -108.071,73.301 0,47.06 56.495,53.46 86.375,53.46 19.948,0 46.505,-3.199 63.165,-5.082 V 27.324 c -15.822,1.363 -42.38,4.58 -64.868,4.58 -12.144,0 -36.343,-0.959 -36.343,-17.62 0,-36.9 110.634,-2.689 110.634,-75.106 10e-4,-43.207 -45.342,-56.825 -87.256,-56.825 m 121.649,230.58 c -10.553,17.721 -27.095,27.062 -48.002,27.062 l -134.92,0.064 c -20.843,0 -37.471,-9.376 -47.969,-27.126 L -92.192,-1.385 c -10.455,-17.674 -10.368,-37.174 0.119,-54.672 l 67.49,-114.421 c 10.495,-17.686 27.126,-27.037 47.968,-27.037 l 134.952,-0.06 c 20.843,0 37.385,9.345 47.939,27.097 l 67.58,114.3 c 10.631,17.914 10.68,36.846 0.075,54.793 l -67.655,114.318 z" id="path722_19_" style="fill:#000c2a"/>
		</g>
	</g>
</g>
</svg>